<?xml version="1.0" standalone="no"?>
<!DOCTYPE svg PUBLIC "-//W3C//DTD SVG 20010904//EN"
 "http://www.w3.org/TR/2001/REC-SVG-20010904/DTD/svg10.dtd">
<svg version="1.0" xmlns="http://www.w3.org/2000/svg"
 width="640.000000pt" height="640.000000pt" viewBox="0 0 640.000000 640.000000"
 preserveAspectRatio="xMidYMid meet">
<metadata>
Created by potrace 1.14, written by Peter Selinger 2001-2017
</metadata>
<g transform="translate(0.000000,640.000000) scale(0.100000,-0.100000)"
fill="#000000" stroke="none">
<path d="M3730 5740 c-30 -11 -56 -25 -58 -30 -2 -6 -9 -10 -16 -10 -12 0 -36
-24 -79 -77 -21 -27 -48 -99 -82 -222 -41 -148 -65 -234 -85 -301 -11 -36 -22
-74 -24 -85 -3 -11 -14 -51 -26 -90 -11 -38 -27 -94 -35 -122 -34 -119 -48
-170 -61 -210 -7 -23 -16 -52 -18 -65 -3 -13 -28 -102 -56 -198 -28 -96 -52
-179 -54 -185 -1 -5 -8 -30 -15 -55 -7 -25 -15 -52 -17 -60 -4 -20 -44 -161
-50 -180 -3 -8 -5 -16 -5 -17 0 -2 -5 -17 -10 -35 -6 -18 -19 -62 -29 -98 -31
-110 -100 -351 -120 -420 -27 -92 -71 -243 -74 -255 -1 -5 -8 -30 -15 -55 -8
-25 -14 -49 -15 -55 -3 -13 -25 -89 -42 -145 -8 -25 -14 -48 -15 -52 0 -4 -5
-22 -10 -40 -6 -18 -19 -62 -29 -98 -56 -196 -80 -280 -93 -323 -8 -26 -13
-47 -12 -47 2 0 -3 -16 -11 -35 -8 -19 -14 -38 -14 -42 -1 -12 -20 -83 -35
-130 -8 -23 -16 -52 -19 -65 -2 -13 -9 -34 -14 -48 -5 -14 -10 -29 -11 -35 -2
-11 -31 -115 -57 -203 -8 -29 -17 -61 -19 -70 -2 -9 -13 -48 -25 -87 -12 -38
-23 -77 -25 -85 -2 -8 -10 -36 -18 -62 -8 -27 -13 -48 -11 -48 3 0 0 -8 -5
-18 -6 -11 -12 -30 -15 -43 -3 -13 -19 -73 -36 -134 -26 -90 -31 -122 -26
-174 10 -119 85 -223 194 -268 75 -32 190 -26 263 11 76 40 134 107 161 186
12 36 23 70 24 75 1 6 30 107 64 225 34 118 97 339 140 490 43 151 86 302 96
335 10 33 19 65 20 70 2 12 89 315 139 485 20 69 38 134 40 144 3 10 9 33 15
51 6 18 12 41 15 51 2 10 29 107 60 214 31 107 58 202 60 210 2 8 11 38 19 65
8 28 31 106 50 175 20 69 38 130 40 135 1 6 8 30 15 55 7 25 26 92 43 150 16
58 31 112 33 120 2 8 31 110 65 225 33 116 62 217 64 225 2 8 67 236 145 506
77 271 143 512 146 538 14 98 -41 231 -119 291 -82 63 -206 81 -306 45z"/>
<path d="M1361 4638 c-24 -5 -63 -21 -85 -35 -22 -15 -304 -290 -626 -612
-665 -667 -643 -639 -643 -791 0 -144 -23 -116 647 -786 472 -472 604 -599
642 -617 39 -17 67 -22 139 -22 80 0 97 3 148 29 65 33 118 88 150 156 16 35
21 64 21 130 0 140 13 123 -514 652 l-466 466 425 426 c234 234 428 426 431
426 8 1 95 109 98 123 2 7 9 23 15 36 7 13 12 63 11 110 0 68 -5 96 -24 134
-65 135 -221 210 -369 175z"/>
<path d="M4860 4632 c-81 -26 -152 -90 -192 -172 -18 -36 -22 -63 -22 -130 0
-141 -13 -124 508 -647 253 -254 462 -466 464 -471 1 -5 -203 -216 -455 -468
-443 -444 -493 -500 -511 -572 -9 -33 -7 -157 2 -177 5 -11 10 -24 10 -30 2
-19 40 -70 80 -109 60 -57 117 -80 206 -82 149 -4 108 -37 789 640 688 685
662 654 657 801 -5 139 13 118 -640 770 -319 320 -595 591 -613 603 -81 57
-191 74 -283 44z"/>
</g>
</svg>
